<svg id="Layer_1" data-name="Layer 1" xmlns="http://www.w3.org/2000/svg" viewBox="0 0 1448.25 1041.3"><defs><style>.cls-1{fill:#e0c361;}.cls-2{fill:#e0d27f;}.cls-3{fill:#ffe77f;}.cls-4{fill:none;stroke:#000;stroke-miterlimit:10;stroke-width:15px;}.cls-5{fill:#f0db6a;}.cls-6{fill:#fffbaa;}.cls-7{fill:#74d2ff;}.cls-8{fill:#94dcff;}</style></defs><title>logo ver 1</title><path class="cls-1" d="M1412.39,838.74c107.17,231.72,9.92,504.72-217.2,609.76s-498.12,2.34-605.29-229.38C524.16,1077,535.35,919.26,606.27,794.34a444.86,444.86,0,0,1,200.84-185C1034.23,504.32,1305.23,607,1412.39,838.74Z" transform="translate(-277.02 -508.28)"/><polygon class="cls-2" points="1155.3 673.61 1125.17 725.75 1056.82 807.38 925.53 893.87 765.49 954.24 618.9 967.14 538.01 940.54 432.34 869.56 363.67 798.26 315.7 716.95 282.41 628.9 270.59 529.81 277.2 427.21 293.05 367.39 322.17 301.17 357.35 242.56 393.1 199.29 438.49 157.59 494.88 118.37 552.49 92.1 606.21 73.94 677.55 61.62 736.66 60.49 799.23 68.97 847.36 79.15 923.38 110.14 999.34 157.24 1052.24 206.32 1098.04 264.04 1130 319.24 1155.54 375.2 1168.95 430.38 1178.74 513.24 1176.39 576.14 1166.97 632.14 1155.3 673.61"/><polygon class="cls-3" points="1176.35 478.36 1159.33 534.12 1085.61 613.99 991.29 695.2 833.58 780.26 678.55 858.03 469.94 898.72 413.84 852.73 354.98 784.04 319.81 725.83 283.61 638.48 271.33 539.77 270.92 475.08 289.01 376.28 319.8 305.31 348.18 255.58 397.97 194.52 475.06 131.53 578.73 79.53 707.06 59.49 768.08 61.41 841.35 76.37 927.79 111.95 999.9 158.57 1048.3 201.46 1091.48 254.72 1117.28 291.33 1154.38 372.7 1171.23 443.01 1176.35 478.36"/><path class="cls-4" d="M1424.49,867.28c86.92,225.16-11.44,480.46-229.3,581.22-190,87.86-410.63,30.38-540.45-126.36" transform="translate(-277.02 -508.28)"/><path class="cls-5" d="M307.41,1480.13c-98.84-134.89,131.64-446.24,514.78-695.42s773.86-341.86,872.7-207L1522.8,695c-74.63-99.37-368.69-30.43-656.79,154s-461.15,414.48-386.52,513.85Z" transform="translate(-277.02 -508.28)"/><path class="cls-3" d="M401.68,1413.22c-87.85-120.15,109.14-391.73,440-606.59S1511.94,515,1599.79,635.15L1451.26,736.37C1385,647.83,1100,660.26,851.14,819.21S483.9,1223.46,550.21,1312Z" transform="translate(-277.02 -508.28)"/><path class="cls-5" d="M307.41,1480.13c98.83,134.88,489.55,42.21,872.69-207s613.62-560.53,514.79-695.42L1522.8,695c74.64,99.37-98.41,329.43-386.51,513.85s-582.16,253.36-656.8,154Z" transform="translate(-277.02 -508.28)"/><path class="cls-4" d="M307.41,1480.13c-98.84-134.89,131.64-446.24,514.78-695.42s773.86-341.86,872.7-207" transform="translate(-277.02 -508.28)"/><polygon class="cls-6" points="1126.06 311.46 1083.52 416.08 973.11 544.45 790.92 665.09 620.14 754.68 464.12 784.39 346.43 771.42 315.7 716.95 293.55 662.23 274.54 580.47 267.33 488.87 287.02 388.35 322.65 298.1 365.91 231.9 418.04 175.64 500.11 116.33 581.66 81.04 655.77 63.67 731.8 60.17 780.25 64.96 847.36 79.15 914.08 105.17 969.48 136.83 991.54 151.67 1017.3 172.94 1050.01 204.28 1085.17 246.06 1110.88 284.31 1126.06 311.46"/><polygon class="cls-3" points="1014.98 170.95 1026.87 234.61 1012.34 327.74 910.6 462.71 660.2 611.86 444.62 676.69 291.11 654.72 273.34 575.13 269.43 525.21 272.54 459.15 281.29 409.8 296.68 358 314.97 313.95 337.37 272.98 365.91 231.9 410.23 182.36 435.83 159.84 490.45 122.44 542.95 95.37 598.99 75.28 668.78 62.59 724.33 59.94 789.53 65.79 834.77 75.58 881.9 91.47 927.79 111.95 990.02 149.09 1014.98 170.95"/><polygon class="cls-5" points="921.72 108.84 953.6 177.78 920.73 283.7 851.63 389.94 668.1 514.22 520.55 568.82 410.82 574.1 329.71 569.16 269.73 494.06 275.67 437.28 282.37 404.52 293.05 367.39 308.82 326.63 322.65 298.1 337.37 272.98 357.35 242.56 378.04 216.79 399.89 193.09 410.23 182.36 435.83 159.84 466.95 137.03 508.18 112.16 555.7 90.18 598.99 75.28 630.26 68.53 677.55 61.62 715.56 60.04 762.69 62.22 809.46 69.51 834.77 75.58 871.06 87.03 906.62 101.58 921.72 108.84"/><polygon class="cls-2" points="809.46 69.51 867.95 117.12 875.69 186.3 814.65 290.32 663.5 402.67 477.96 481.65 357.33 491.21 310.3 438.69 329.24 286.06 348.18 255.58 365.91 231.9 378.04 216.79 399.89 193.09 421.1 172.37 447.38 150.95 471.87 133.44 503.73 114.42 527.61 102.29 569.14 85.28 606.21 73.94 632.46 68.08 672.29 62.6 707.06 59.49 731.8 60.17 762.69 62.22 789.53 65.79 809.46 69.51"/><polygon class="cls-7" points="749.75 61.08 779.95 77.62 789.06 120.26 729.95 221.87 650.25 292.08 502.04 368.2 388.95 382.6 358.94 337.37 357.35 242.56 382.86 210.78 410.23 182.36 441.47 155.51 466.95 137.03 494.88 118.37 512.61 109.16 536.33 98.19 559.39 88.84 581.66 81.04 611.66 72.59 630.26 68.53 648.03 65.35 668.78 62.59 698.91 60.24 724.33 59.94 749.75 61.08"/><polygon class="cls-8" points="693.8 60.47 719.46 81.2 713.77 108.23 680.5 147.73 564.97 222.38 479.08 253.01 414.07 246.83 397.85 211.75 422.07 171.51 435.83 159.84 454.58 145.41 479.43 128.57 500.11 116.33 521.97 104.83 542.95 95.37 555.7 90.18 574.11 83.47 588.43 78.87 603.26 74.66 618.08 71.01 638.75 66.8 658.4 63.74 677.55 61.62 693.8 60.47"/><path class="cls-4" d="M307.41,1480.13c98.83,134.88,489.55,42.21,872.69-207s613.62-560.53,514.79-695.42" transform="translate(-277.02 -508.28)"/><path class="cls-3" d="M401.13,1413.43c82.11,111.72,416.6,27.72,747.11-187.64S1680.12,745.28,1598,633.55L1449.48,734.77c62,82.29-84.45,285.07-332.93,444.52S611.7,1394.49,549.66,1312.2Z" transform="translate(-277.02 -508.28)"/><path class="cls-4" d="M559,1124.62c-37.74,74-43.55,141.17-9.35,187.58" transform="translate(-277.02 -508.28)"/><path class="cls-4" d="M1451.79,738.14c-30.16-40.92-87.51-60.44-160.77-60.22" transform="translate(-277.02 -508.28)"/><path class="cls-4" d="M1451.64,737.93c64.42,85.77-86.42,282.19-335.09,441.36s-502.62,218.48-567,132.71" transform="translate(-277.02 -508.28)"/><path class="cls-4" d="M654.74,1322.14a471.67,471.67,0,0,1-64.84-103C524.16,1077,535.35,919.26,606.27,794.34a444.86,444.86,0,0,1,200.84-185c227.12-105,498.12-2.34,605.28,229.38q6.55,14.18,12.1,28.54" transform="translate(-277.02 -508.28)"/></svg>